<svg width="14" height="14" viewBox="0 0 14 14" fill="none" xmlns="http://www.w3.org/2000/svg">
<path d="M7 9.15948C7.23206 9.15948 7.45462 9.23009 7.61872 9.35579C7.78281 9.48149 7.875 9.65197 7.875 9.82974C7.875 10.0075 7.78281 10.178 7.61872 10.3037C7.45462 10.4294 7.23206 10.5 7 10.5C6.76794 10.5 6.54538 10.4294 6.38128 10.3037C6.21719 10.178 6.125 10.0075 6.125 9.82974C6.125 9.65197 6.21719 9.48149 6.38128 9.35579C6.54538 9.23009 6.76794 9.15948 7 9.15948ZM7 3.50081C7.21088 3.49341 7.41946 3.53699 7.59624 3.62537C7.6671 3.67737 7.72034 3.74182 7.75138 3.81313C7.78241 3.88444 7.79029 3.96047 7.77434 4.03464L7.5885 8.07401C7.59846 8.1451 7.58529 8.21697 7.55016 8.28321C7.51503 8.34945 7.45903 8.408 7.38717 8.45363C7.26654 8.52293 7.11982 8.56039 6.96903 8.56039C6.81824 8.56039 6.67152 8.52293 6.55089 8.45363C6.47902 8.408 6.42302 8.34945 6.38789 8.28321C6.35276 8.21697 6.33959 8.1451 6.34956 8.07401L6.22566 4.03464C6.21214 3.95755 6.2242 3.87909 6.26075 3.80652C6.29729 3.73395 6.35713 3.6696 6.43473 3.61944C6.60363 3.53782 6.80039 3.49653 7 3.50081Z" fill="#2262C6"/>
<path d="M13.25 7C13.25 10.4518 10.4518 13.25 7 13.25C3.54822 13.25 0.75 10.4518 0.75 7C0.75 3.54822 3.54822 0.75 7 0.75C10.4518 0.75 13.25 3.54822 13.25 7Z" stroke="#2262C6" stroke-width="1.5" stroke-linecap="round" stroke-linejoin="round"/>
</svg>
