<svg width="45" height="43" viewBox="0 0 45 43" fill="none" xmlns="http://www.w3.org/2000/svg">
<path d="M37.6685 4.43459C33.7508 0.498365 27.3987 0.498365 23.481 4.43459L21.3679 6.55759L19.2548 4.43459C15.3371 0.498365 8.98505 0.498365 5.06727 4.43459C1.1495 8.37082 1.14946 14.7527 5.06724 18.6889L7.1803 20.8118L18.9791 32.6661C20.2984 33.9916 22.4374 33.9916 23.7567 32.6661L35.5555 20.8118L37.6685 18.6889C41.5863 14.7527 41.5863 8.37082 37.6685 4.43459Z" stroke="#3E3A39" stroke-width="2" stroke-miterlimit="10" stroke-linecap="round" stroke-linejoin="round"/>
<path fill-rule="evenodd" clip-rule="evenodd" d="M37.579 20.7698C36.4651 18.8915 33.7531 18.8915 32.6392 20.7698L32.6392 20.7698L26.0188 31.9336C24.8844 33.8464 26.2506 36.2884 28.4887 36.2884H41.7295C43.9676 36.2884 45.3338 33.8464 44.1994 31.9336L37.579 20.7698L37.579 20.7698Z" fill="#91BCFF"/>
<path fill-rule="evenodd" clip-rule="evenodd" d="M35.109 23.8469C35.7441 23.8469 36.259 24.3618 36.259 24.9969V29.3717C36.259 30.0068 35.7441 30.5217 35.109 30.5217C34.4739 30.5217 33.959 30.0068 33.959 29.3717V24.9969C33.959 24.3618 34.4739 23.8469 35.109 23.8469Z" fill="#3E3A39"/>
<path d="M36.0596 32.2582C36.0596 31.7309 35.6341 31.3035 35.1094 31.3035C34.5846 31.3035 34.1592 31.7309 34.1592 32.2582C34.1592 32.7854 34.5846 33.2128 35.1094 33.2128C35.6341 33.2128 36.0596 32.7854 36.0596 32.2582Z" fill="#3E3A39"/>
<path fill-rule="evenodd" clip-rule="evenodd" d="M16.2759 15.4749C16.6854 15.5237 17.0374 15.7879 17.1985 16.1675L21.4768 26.247L24.2504 21.8551C24.4611 21.5214 24.8282 21.3191 25.2228 21.3191H29.0319C29.6671 21.3191 30.1819 21.834 30.1819 22.4691C30.1819 23.1042 29.6671 23.6191 29.0319 23.6191H25.8566L22.2488 29.3322C22.0203 29.6939 21.6099 29.8989 21.1834 29.8644C20.757 29.8298 20.385 29.5613 20.2178 29.1674L15.8661 18.9151L12.7193 23.1545C12.5024 23.4468 12.1599 23.6191 11.7959 23.6191H4.98789C4.35276 23.6191 3.83789 23.1042 3.83789 22.4691C3.83789 21.834 4.35276 21.3191 4.98789 21.3191H11.2173L15.2165 15.9314C15.4623 15.6003 15.8665 15.4261 16.2759 15.4749Z" fill="#91BCFF"/>
<path fill-rule="evenodd" clip-rule="evenodd" d="M0.978516 22.4692C0.978516 21.1818 2.01865 20.1289 3.31322 20.1289C4.60773 20.1289 5.64795 21.1818 5.64795 22.4692C5.64795 23.7566 4.60773 24.8095 3.31322 24.8095C2.01865 24.8095 0.978516 23.7566 0.978516 22.4692ZM3.28153 22.4521C3.28001 22.4557 3.27852 22.4607 3.27852 22.4692C3.27852 22.4777 3.28001 22.4827 3.28153 22.4863C3.28336 22.4907 3.28637 22.4954 3.29059 22.4996C3.29481 22.5039 3.2989 22.5063 3.30185 22.5076C3.30401 22.5085 3.30708 22.5095 3.31322 22.5095C3.31935 22.5095 3.32242 22.5085 3.3246 22.5076C3.32755 22.5063 3.33165 22.5039 3.33587 22.4996C3.3401 22.4954 3.34311 22.4907 3.34494 22.4863C3.34646 22.4827 3.34795 22.4777 3.34795 22.4692C3.34795 22.4608 3.34646 22.4557 3.34494 22.4521C3.34311 22.4477 3.3401 22.443 3.33587 22.4388C3.33165 22.4346 3.32755 22.4321 3.3246 22.4308C3.32242 22.4299 3.31935 22.4289 3.31322 22.4289C3.30708 22.4289 3.30401 22.4299 3.30185 22.4308C3.2989 22.4321 3.29481 22.4345 3.29059 22.4388C3.28637 22.443 3.28336 22.4477 3.28153 22.4521Z" fill="#91BCFF"/>
<path d="M35.4145 38.3694L34.482 39.3063C33.9669 39.8238 33.9669 40.6628 34.482 41.1802C34.997 41.6977 35.8321 41.6977 36.3471 41.1802C36.8622 40.6628 36.8622 39.8238 36.3471 39.3063L35.4145 38.3694Z" fill="#91BCFF"/>
<path fill-rule="evenodd" clip-rule="evenodd" d="M35.4141 37.2192C35.7201 37.2192 36.0134 37.3411 36.2292 37.558L37.1618 38.4949L37.1618 38.4949C38.1234 39.461 38.1234 41.0252 37.1618 41.9913L37.1618 41.9914C36.1972 42.9604 34.6311 42.9604 33.6665 41.9914L33.6665 41.9913C32.7049 41.0252 32.7049 39.461 33.6665 38.4949L34.5991 37.558C34.8149 37.3411 35.1082 37.2192 35.4141 37.2192ZM35.4142 39.9994L35.2967 40.1174C35.2282 40.1862 35.2282 40.3 35.2966 40.3688M35.4142 39.9994L35.5317 40.1174C35.5317 40.1174 35.5317 40.1174 35.5317 40.1175C35.6001 40.1862 35.6001 40.3 35.5317 40.3688M35.5317 40.3688C35.4662 40.4346 35.3622 40.4346 35.2967 40.3688H35.5317Z" fill="#91BCFF"/>
</svg>
