<svg width="41" height="42" viewBox="0 0 41 42" fill="none" xmlns="http://www.w3.org/2000/svg">
<g clip-path="url(#clip0_28_410)">
<path d="M20.5007 0.482544C9.26767 0.482544 0.128906 9.62141 0.128906 20.8545C0.128906 32.0871 9.26767 41.2254 20.5007 41.2254C31.7334 41.2254 40.8718 32.0871 40.8718 20.8545C40.8718 9.62141 31.7334 0.482544 20.5007 0.482544ZM20.5007 39.1953C10.3869 39.1953 2.15902 30.9677 2.15902 20.8545C2.15902 16.1619 3.93249 11.8771 6.84139 8.62995L32.7247 34.513C29.4776 37.422 25.1932 39.1953 20.5007 39.1953ZM18.6169 17.5347L8.27675 7.19463C11.5238 4.28573 15.8082 2.51264 20.5007 2.51264C30.6138 2.51264 38.8416 10.7408 38.8416 20.8545C38.8416 25.5464 37.0685 29.8308 34.16 33.0776L27.9673 26.8848" fill="#333333"/>
<path d="M28.0136 26.8769L32.3308 20.8463L25.3602 11.1093H18.0576L22.6517 17.5268H18.6632L28.0136 26.8769Z" fill="#91BCFF"/>
<path d="M25.3143 30.5912L25.7148 30.0314L21.4592 25.7755L18.0117 30.5912H25.3143Z" fill="#91BCFF"/>
<path d="M13.2182 17.5347H8.7168V24.1736H19.8572L13.2182 17.5347Z" fill="#91BCFF"/>
</g>
<defs>
<clipPath id="clip0_28_410">
<rect width="40.7429" height="40.7429" fill="white" transform="translate(0.128906 0.482544)"/>
</clipPath>
</defs>
</svg>
