<svg width="42" height="43" viewBox="0 0 42 43" fill="none" xmlns="http://www.w3.org/2000/svg">
<path d="M12.6868 15.9276L12.6868 15.9276C12.7964 16.2283 12.8504 16.5523 12.8504 16.8966V17.0645C12.8504 17.6083 12.7532 18.0836 12.5435 18.4779C12.5434 18.478 12.5434 18.478 12.5434 18.478L12.3227 18.3607L12.6868 15.9276ZM12.6868 15.9276C12.5738 15.6177 12.3873 15.3402 12.1372 15.0942L12.137 15.094M12.6868 15.9276L12.137 15.094M12.137 15.094C11.8843 14.8459 11.5582 14.6311 11.1653 14.4458L11.1645 14.4454M12.137 15.094L11.1645 14.4454M11.1645 14.4454C10.7697 14.2607 10.2889 14.1062 9.72627 13.9839C9.45163 13.9231 9.19232 13.8657 8.94783 13.8105C8.71755 13.7571 8.52437 13.6905 8.36566 13.6112C8.21338 13.5346 8.09966 13.4424 8.01898 13.3388C7.9543 13.2557 7.91027 13.1339 7.91027 12.9513V12.7968C7.91027 12.7146 7.93223 12.6255 7.98419 12.5274C8.03407 12.4345 8.11417 12.3394 8.23413 12.2456L8.23414 12.2456M11.1645 14.4454L8.23414 12.2456M8.23414 12.2456L8.23558 12.2444M8.23414 12.2456L8.23558 12.2444M8.23558 12.2444C8.34767 12.1554 8.49771 12.0775 8.69097 12.0161L8.69097 12.0161M8.23558 12.2444L8.69097 12.0161M8.69097 12.0161L8.69213 12.0157M8.69097 12.0161L8.69213 12.0157M8.69213 12.0157C8.87464 11.9568 9.10196 11.925 9.3756 11.925C9.72934 11.925 10.0587 11.9594 10.3662 12.0282C10.6564 12.0936 10.983 12.2358 11.3444 12.4654L11.5599 12.6023M8.69213 12.0157L11.5599 12.6023M11.5599 12.6023L11.6922 12.3839M11.5599 12.6023L11.6922 12.3839M11.6922 12.3839L12.4654 11.1081L12.5921 10.8991M11.6922 12.3839L12.5921 10.8991M12.5921 10.8991L12.386 10.7677M12.5921 10.8991L12.386 10.7677M12.386 10.7677C11.8927 10.4532 11.3931 10.2374 10.8894 10.1218L10.8886 10.1216M12.386 10.7677L10.8886 10.1216M10.8886 10.1216C10.3961 10.0103 9.88388 9.95496 9.35066 9.95496C8.70179 9.95496 8.14177 10.0414 7.67872 10.2231L7.67827 10.2233M10.8886 10.1216L7.67827 10.2233M7.67827 10.2233C7.2287 10.4008 6.85606 10.6307 6.56835 10.9178L6.56819 10.918M7.67827 10.2233L6.56819 10.918M6.56819 10.918C6.28828 11.1978 6.08133 11.5102 5.95574 11.8522L5.95563 11.8525M6.56819 10.918L5.95563 11.8525M5.95563 11.8525C5.83541 12.1812 5.77247 12.5051 5.77247 12.8222M5.95563 11.8525L5.77247 12.8222M5.77247 12.8222V12.9901M5.77247 12.8222V12.9901M5.77247 12.9901C5.77247 13.5585 5.8756 14.0416 6.10654 14.4166M5.77247 12.9901L6.10654 14.4166M6.10654 14.4166C6.32434 14.7721 6.60931 15.0572 6.95844 15.2671C7.29577 15.4704 7.67119 15.6211 8.08562 15.7206C8.47788 15.817 8.8688 15.9073 9.25631 15.9938C9.77554 16.1101 10.1484 16.2548 10.393 16.416L6.10654 14.4166ZM11.7064 19.4075L11.7071 19.407L10.4718 19.6499L10.5251 19.8942C10.5251 19.8941 10.5252 19.8941 10.5253 19.8941C10.9649 19.7982 11.3602 19.6358 11.7064 19.4075Z" fill="#91BCFF" stroke="#91BCFF" stroke-width="0.5"/>
<path d="M16.3385 19.8055L16.338 19.8053C15.8275 19.6482 15.3784 19.399 14.994 19.056C14.6046 18.7094 14.3001 18.2616 14.0776 17.7201L16.3385 19.8055ZM16.3385 19.8055C16.8407 19.9589 17.3701 20.0355 17.9267 20.0355C18.4823 20.0355 19.0126 19.9589 19.5148 19.8055L19.5154 19.8053M16.3385 19.8055L19.5154 19.8053M19.5154 19.8053C20.025 19.6481 20.474 19.399 20.8591 19.0562L19.5154 19.8053ZM21.7746 12.2877L21.7746 12.2879C22.0007 12.8337 22.1101 13.482 22.1101 14.2281V15.7623C22.1101 16.5155 22.0008 17.171 21.7748 17.7201C21.5524 18.2615 21.2488 18.7094 20.8591 19.0561L21.7746 12.2877ZM21.7746 12.2877C21.5517 11.7507 21.2452 11.3035 20.853 10.9534M21.7746 12.2877L20.853 10.9534M14.0778 12.2878L14.0778 12.2877C14.3007 11.7507 14.6072 11.3034 15.0006 10.9532C15.3887 10.606 15.839 10.3527 16.3483 10.1921L14.0778 12.2878ZM14.0778 12.2878C13.8515 12.8339 13.7432 13.4823 13.7432 14.2281M14.0778 12.2878L13.7432 14.2281M16.0743 13.1861L16.0741 13.1865C15.9652 13.5041 15.9068 13.9171 15.9068 14.4339V15.5557C15.9068 16.0719 15.9652 16.485 16.0742 16.8031L16.0743 16.8036C16.1852 17.1292 16.331 17.3722 16.5044 17.5454L16.5044 17.5455C16.681 17.7221 16.8857 17.8442 17.1204 17.9144C17.3706 17.9886 17.6399 18.0267 17.9267 18.0267C18.2224 18.0267 18.4953 17.9884 18.7449 17.9144C18.9795 17.8442 19.1843 17.7221 19.3621 17.5452C19.5344 17.3728 19.6774 17.131 19.7847 16.8059L16.0743 13.1861ZM16.0743 13.1861C16.1852 12.861 16.3311 12.6174 16.504 12.4454L16.5048 12.4446C16.6813 12.2673 16.8858 12.1452 17.1205 12.0751M16.0743 13.1861L17.1205 12.0751M17.1205 12.0751C17.3706 12.0009 17.6399 11.9629 17.9267 11.9629C18.2224 11.9629 18.4952 12.0011 18.7448 12.0751C18.9794 12.1452 19.1842 12.2673 19.3619 12.445L19.3623 12.4454C19.5342 12.6165 19.6772 12.859 19.7847 13.1837C19.8898 13.5025 19.9465 13.9167 19.9465 14.4339V15.5557C19.9465 16.0723 19.8899 16.4865 19.7847 16.8058L17.1205 12.0751ZM20.853 10.9534C20.4639 10.6062 20.0137 10.3528 19.5041 10.1921C19.0013 10.0332 18.4748 9.95496 17.9267 9.95496C17.3775 9.95496 16.8519 10.0332 16.3484 10.1921L20.853 10.9534ZM13.7432 14.2281V15.7623M13.7432 14.2281V15.7623M13.7432 15.7623C13.7432 16.5151 13.8514 17.1706 14.0775 17.72L13.7432 15.7623Z" fill="#91BCFF" stroke="#91BCFF" stroke-width="0.5"/>
<path d="M27.7527 17.79L27.7529 17.7898C27.9639 17.6233 28.0572 17.4293 28.0572 17.1936V17.052C28.0572 16.7442 27.9498 16.5476 27.7506 16.4161L27.7504 16.4159C27.5069 16.2549 27.1342 16.1102 26.6148 15.9938C26.2272 15.9073 25.8363 15.8171 25.4432 15.7207M27.7527 17.79L25.5022 15.4777M27.7527 17.79C27.5525 17.9481 27.1923 18.0525 26.6177 18.0525C26.0864 18.0525 25.6154 17.9669 25.2033 17.7993L25.2025 17.7989C24.7727 17.6257 24.4325 17.4283 24.175 17.209L23.9516 17.0187L23.7993 17.2696L23.0002 18.5851L22.887 18.7715L23.0562 18.9089C23.2505 19.0668 23.477 19.2143 23.7318 19.3532L23.7322 19.3534C23.991 19.494 24.2685 19.6142 24.566 19.7132L24.5662 19.7132C24.8625 19.8117 25.1781 19.8892 25.5105 19.9477L25.5112 19.9479C25.8484 20.0062 26.1912 20.0355 26.5402 20.0355C27.0046 20.0355 27.4525 19.9886 27.8834 19.8942C28.3231 19.7982 28.7186 19.6358 29.0642 19.4073L29.0644 19.4072C29.4187 19.1726 29.6975 18.8617 29.9018 18.4782L29.9021 18.4776C30.1106 18.0835 30.2079 17.6084 30.2079 17.0645V16.8966C30.2079 16.5531 30.1551 16.229 30.0443 15.9276C29.9321 15.6175 29.7456 15.34 29.4956 15.0942L29.4951 15.0937C29.2418 14.846 28.917 14.6312 28.5236 14.4457L28.5229 14.4454C28.1282 14.2607 27.6473 14.1062 27.0837 13.9839C26.8091 13.9231 26.5498 13.8657 26.3064 13.8106C26.076 13.7571 25.8827 13.6905 25.7239 13.6111C25.5717 13.5346 25.458 13.4423 25.3774 13.3388C25.3127 13.2557 25.2687 13.1338 25.2687 12.9513V12.7968C25.2687 12.7147 25.2906 12.6256 25.3426 12.5274C25.3926 12.4344 25.4728 12.3391 25.5922 12.2451L25.5925 12.2449C25.706 12.1553 25.8556 12.0774 26.0491 12.0162L26.0491 12.0162L26.0505 12.0157C26.2331 11.9568 26.4595 11.925 26.734 11.925C27.0878 11.925 27.4171 11.9594 27.7237 12.0282C28.0147 12.0936 28.3403 12.2357 28.7019 12.4654L28.9173 12.6022L29.0496 12.384L29.8238 11.1082L29.9508 10.899L29.7443 10.7676C29.2503 10.4532 28.7516 10.2374 28.2468 10.1218L28.2462 10.1216C27.7545 10.0103 27.2413 9.95496 26.7082 9.95496C26.0602 9.95496 25.5001 10.0414 25.0372 10.2232L25.0367 10.2233C24.5875 10.4006 24.2138 10.6304 23.9267 10.9179M27.7527 17.79L23.9267 10.9179M25.4432 15.7207C25.443 15.7206 25.4428 15.7206 25.4427 15.7205L25.5022 15.4777M25.4432 15.7207C25.4434 15.7207 25.4436 15.7208 25.4437 15.7208L25.5022 15.4777M25.4432 15.7207C25.0298 15.6212 24.6534 15.4705 24.3159 15.2671M25.5022 15.4777C25.1109 15.3836 24.7585 15.242 24.4448 15.0529M24.3159 15.2671L24.4448 15.0529M24.3159 15.2671C23.9665 15.057 23.6824 14.7717 23.4648 14.4164L23.6779 14.2858L23.4651 14.4169C23.2341 14.0419 23.1309 13.5587 23.1309 12.9901V12.8222C23.1309 12.505 23.1939 12.1812 23.314 11.8526L23.3141 11.8522C23.4396 11.5106 23.6455 11.1981 23.9267 10.9179M24.3159 15.2671C24.3159 15.2671 24.3158 15.267 24.3157 15.267L24.4448 15.0529M24.4448 15.0529L23.9267 10.9179M24.2116 17.5539C24.4608 17.7314 24.7599 17.8901 25.1091 18.0308C25.5557 18.2126 26.0595 18.3025 26.6177 18.3025C27.2111 18.3025 27.641 18.1969 27.9077 17.9861L24.2116 17.5539ZM24.2116 17.5539L24.2266 17.5291L24.0129 17.3993M24.2116 17.5539L24.0129 17.3993M24.0129 17.3993L23.8508 17.5897C23.861 17.5983 23.8713 17.607 23.8816 17.6155M24.0129 17.3993L23.8816 17.6155M23.8816 17.6155L23.2139 18.7149C23.3938 18.8611 23.607 19.0004 23.8515 19.1337C24.0969 19.267 24.3608 19.3814 24.645 19.476C24.9282 19.5701 25.2318 19.6448 25.5538 19.7015C25.8768 19.7574 26.2053 19.7855 26.5402 19.7855C26.9877 19.7855 27.4177 19.7403 27.8302 19.6499L23.8816 17.6155Z" fill="#91BCFF" stroke="#91BCFF" stroke-width="0.5"/>
<path d="M40.5842 14.825H35.7142V1.77012C35.7142 1.24847 35.2911 0.825439 34.7693 0.825439L1.04446 0.825439C0.522666 0.825439 0.0996094 1.24847 0.0996094 1.77012L0.0996094 28.5131C0.0996094 29.0348 0.522666 29.4578 1.04446 29.4578H6.30203V36.2647C6.30203 36.6469 6.53224 36.9912 6.88519 37.1375C7.00235 37.1859 7.12508 37.2094 7.24688 37.2094C7.49277 37.2094 7.73404 37.1135 7.91493 36.9327L14.0546 30.7936V36.0577C14.0546 36.5794 14.4777 37.0023 14.9995 37.0023H29.6063L35.2113 42.6058C35.3921 42.7867 35.6334 42.8826 35.8793 42.8826C36.0011 42.8826 36.1238 42.8591 36.241 42.8106C36.5939 42.6644 36.8242 42.3201 36.8242 41.9379V37.0023H40.5842C41.106 37.0023 41.529 36.5794 41.529 36.0577V15.7696C41.529 15.2479 41.106 14.825 40.5842 14.825ZM7.24688 27.5684H1.98931L1.98931 2.7148L33.8245 2.7148V27.5684L14.9995 27.5684C14.7489 27.5684 14.5086 27.6681 14.3314 27.8452L8.19173 33.984V28.5131C8.19173 27.9914 7.76867 27.5684 7.24688 27.5684ZM39.6393 35.113H35.8793C35.3575 35.113 34.9345 35.536 34.9345 36.0577V39.6574L30.6656 35.3897C30.4884 35.2124 30.2481 35.113 29.9975 35.113H15.9443V29.4578L34.7693 29.4578C35.2911 29.4578 35.7142 29.0348 35.7142 28.5131V16.7143H39.6393V35.113Z" fill="#333333"/>
</svg>
