<svg width="43" height="43" viewBox="0 0 43 43" fill="none" xmlns="http://www.w3.org/2000/svg">
<path d="M23.5873 19.5592C26.1173 18.959 27.6818 16.4216 27.0816 13.8916C26.4815 11.3616 23.944 9.79712 21.414 10.3973C18.884 10.9974 17.3195 13.5349 17.9196 16.0648C18.5198 18.5948 21.0572 20.1593 23.5873 19.5592Z" fill="#91BCFF"/>
<path d="M38.2518 20.9388C37.7464 20.9388 37.3366 21.3486 37.3366 21.854C37.3366 25.2765 36.1685 28.4298 34.2144 30.9427L32.3456 23.3967C31.9095 21.6357 30.3377 20.4057 28.5234 20.4057H25.3243C24.8189 20.4057 24.4092 20.8155 24.4092 21.3209C24.4092 21.8263 24.8189 22.236 25.3243 22.236H28.5234C29.4944 22.236 30.3354 22.8943 30.5689 23.8369L32.7342 32.5804C30.0698 35.1237 26.4654 36.6906 22.5 36.6906C18.6547 36.6906 15.0354 35.2341 12.264 32.5878L14.4311 23.8369C14.6645 22.8943 15.5055 22.236 16.4765 22.236H19.6756C20.181 22.236 20.5908 21.8263 20.5908 21.3209C20.5908 20.8155 20.181 20.4057 19.6756 20.4057H16.4765C14.6623 20.4057 13.0905 21.6357 12.6543 23.3967L10.7833 30.9523C8.76241 28.3609 7.66334 25.1929 7.66334 21.854C7.66334 13.6731 14.3191 7.01735 22.5 7.01735C26.4632 7.01735 30.1891 8.56059 32.9909 11.3631C33.3484 11.7206 33.9277 11.7203 34.2852 11.3633C34.6427 11.0058 34.6427 10.4264 34.2854 10.069C31.1378 6.92084 26.9522 5.18701 22.5 5.18701C13.3099 5.18701 5.83301 12.6639 5.83301 21.854C5.83301 26.3062 7.56661 30.4915 10.7145 33.639C13.8622 36.7871 18.0477 38.5209 22.5 38.5209C31.6901 38.5209 39.1669 31.0441 39.1669 21.854C39.1669 21.3486 38.7572 20.9388 38.2518 20.9388Z" fill="#333333"/>
<path d="M22.5003 1.48242C11.2674 1.48242 2.12891 10.6209 2.12891 21.8539C2.12891 33.0868 11.2674 42.2253 22.5003 42.2253C33.7333 42.2253 42.8718 33.0868 42.8718 21.8539C42.8718 10.6209 33.7333 1.48242 22.5003 1.48242ZM22.5003 40.3949C12.2767 40.3949 3.95924 32.0775 3.95924 21.8539C3.95924 11.6302 12.2767 3.31276 22.5003 3.31276C32.724 3.31276 41.0414 11.6302 41.0414 21.8539C41.0414 32.0775 32.724 40.3949 22.5003 40.3949Z" fill="#333333"/>
<path d="M35.6063 14.088C36.1224 14.088 36.5406 13.6697 36.5406 13.1541C36.5406 12.6379 36.1224 12.2192 35.6063 12.2192C35.0902 12.2192 34.6719 12.6379 34.6719 13.1541C34.6719 13.6697 35.0902 14.088 35.6063 14.088Z" fill="#333333"/>
<path fill-rule="evenodd" clip-rule="evenodd" d="M10.6716 1.48242L6.72879 1.48242V6.08244H2.12891V10.0253H6.72879V14.6253H10.6716V10.0253H15.2718V6.08244L10.6716 6.08244V1.48242Z" fill="#91BCFF"/>
<path fill-rule="evenodd" clip-rule="evenodd" d="M5.41433 0.168213L11.9858 0.168213V4.76823L16.5859 4.76823V11.3397L11.9858 11.3397L11.9858 15.9396H5.41433V11.3397H0.814453L0.814453 4.76823H5.41433V0.168213ZM6.72862 6.08252H2.12874L2.12874 10.0254H6.72862V14.6254H10.6715V10.0254H15.2716V6.08252H10.6715V1.4825L6.72862 1.4825V6.08252Z" fill="white"/>
</svg>
