<svg width="31" height="44" viewBox="0 0 31 44" fill="none" xmlns="http://www.w3.org/2000/svg">
<path fill-rule="evenodd" clip-rule="evenodd" d="M8.57836 0.332764C7.94324 0.332764 7.42836 0.847636 7.42836 1.48276V6.74504H5.59594C2.96252 6.74504 0.823242 8.87577 0.823242 11.5096L0.823242 38.611C0.823242 41.2448 2.96252 43.3755 5.59594 43.3755H25.5337C28.1671 43.3755 30.3064 41.2448 30.3063 38.6109L30.3063 11.5096C30.3063 8.87577 28.167 6.74504 25.5336 6.74504H23.7014V1.48276C23.7014 0.847636 23.1865 0.332764 22.5514 0.332764L8.57836 0.332764ZM21.4014 6.74504V2.63276L9.72836 2.63276V6.74504H21.4014ZM3.12324 11.5096C3.12324 10.1509 4.22788 9.04504 5.59594 9.04504L25.5336 9.04504C26.9016 9.04504 28.0063 10.1509 28.0063 11.5096L28.0063 38.6111C28.0064 39.9697 26.9018 41.0756 25.5337 41.0756H5.59594C4.22788 41.0756 3.12324 39.9697 3.12324 38.611L3.12324 11.5096Z" fill="#333333"/>
<path fill-rule="evenodd" clip-rule="evenodd" d="M17.7743 17.5129C16.6604 15.6345 13.9485 15.6345 12.8345 17.5129L12.8345 17.5129L6.21408 28.6766C5.07972 30.5895 6.44591 33.0314 8.68399 33.0314H21.9248C24.1629 33.0314 25.5291 30.5895 24.3947 28.6766L17.7744 17.5129L17.7743 17.5129Z" fill="#91BCFF"/>
<path d="M15.3047 21.74V26.1147" stroke="#3E3A39" stroke-width="2" stroke-miterlimit="10" stroke-linecap="round" stroke-linejoin="round"/>
<path d="M16.2549 29.0013C16.2549 28.474 15.8295 28.0466 15.3047 28.0466C14.7799 28.0466 14.3545 28.474 14.3545 29.0013C14.3545 29.5286 14.7799 29.956 15.3047 29.956C15.8295 29.956 16.2549 29.5286 16.2549 29.0013Z" fill="#3E3A39"/>
</svg>
