<svg width="42" height="44" viewBox="0 0 42 44" fill="none" xmlns="http://www.w3.org/2000/svg">
<path fill-rule="evenodd" clip-rule="evenodd" d="M11.04 34.1275C11.6077 34.4124 11.837 35.1035 11.5521 35.6712L8.00426 42.7411C7.7194 43.3087 7.02829 43.538 6.46063 43.2531C5.89297 42.9683 5.66372 42.2771 5.94858 41.7095L9.49641 34.6396C9.78127 34.0719 10.4724 33.8427 11.04 34.1275Z" fill="#333333"/>
<path fill-rule="evenodd" clip-rule="evenodd" d="M30.4323 34.1275C31 33.8427 31.6911 34.0719 31.976 34.6396L35.5236 41.7095C35.8085 42.2772 35.5792 42.9683 35.0115 43.2531C34.4439 43.538 33.7528 43.3087 33.4679 42.7411L29.9203 35.6712C29.6354 35.1035 29.8647 34.4124 30.4323 34.1275Z" fill="#333333"/>
<path fill-rule="evenodd" clip-rule="evenodd" d="M20.7363 0.33252C21.1479 0.33252 21.5281 0.552462 21.7332 0.909243L41.0967 34.5821C41.3013 34.938 41.3008 35.376 41.0952 35.7313C40.8897 36.0866 40.5103 36.3054 40.0998 36.3054H1.37266C0.962155 36.3054 0.582781 36.0866 0.377224 35.7313C0.171666 35.376 0.1711 34.938 0.375736 34.5821L19.7394 0.909239C19.9445 0.552459 20.3247 0.332519 20.7363 0.33252ZM3.36055 34.0054H38.1119L20.7363 3.78943L3.36055 34.0054Z" fill="#333333"/>
<path fill-rule="evenodd" clip-rule="evenodd" d="M20.7362 13.3896C21.1477 13.3897 21.5279 13.6096 21.7331 13.9664L29.8337 28.0534C30.0384 28.4092 30.0378 28.8472 29.8322 29.2025C29.6267 29.5578 29.2473 29.7766 28.8368 29.7766H12.6354C12.2248 29.7766 11.8455 29.5578 11.6399 29.2025C11.4344 28.8472 11.4338 28.4092 11.6384 28.0533L19.7392 13.9664C19.9444 13.6096 20.3246 13.3896 20.7362 13.3896ZM14.6233 27.4766H26.8489L20.7362 16.8465L14.6233 27.4766Z" fill="#91BCFF"/>
</svg>
