<svg width="14" height="14" viewBox="0 0 14 14" fill="none" xmlns="http://www.w3.org/2000/svg">
<path d="M6.37716 4.89258H4.75879V6.53924H6.37716V4.89258Z" fill="#666666"/>
<path d="M9.07735 4.89258H7.45898V6.53924H9.07735V4.89258Z" fill="#666666"/>
<path d="M11.7785 4.89258H10.1602V6.53924H11.7785V4.89258Z" fill="#666666"/>
<path d="M3.67598 9.75146H2.05762V11.3981H3.67598V9.75146Z" fill="#666666"/>
<path d="M6.37716 9.75146H4.75879V11.3981H6.37716V9.75146Z" fill="#666666"/>
<path d="M9.07735 9.75146H7.45898V11.3981H9.07735V9.75146Z" fill="#666666"/>
<path d="M6.37716 7.32471H4.75879V8.97137H6.37716V7.32471Z" fill="#666666"/>
<path d="M3.67598 7.32471H2.05762V8.97137H3.67598V7.32471Z" fill="#666666"/>
<path d="M9.07735 7.32471H7.45898V8.97137H9.07735V7.32471Z" fill="#666666"/>
<path d="M11.7785 7.32471H10.1602V8.97137H11.7785V7.32471Z" fill="#666666"/>
<path d="M10.2234 0.933105H3.66504V1.18741H10.2234V0.933105Z" fill="#666666"/>
<path d="M12.935 0.933105H11.8102V1.18769H12.935V3.71186H12.5371V12.3081H1.12893V3.71186H0.730967V1.18769H2.07342V0.933105H0.730967C0.625849 0.934508 0.525423 0.97776 0.451087 1.05364C0.376751 1.12953 0.334382 1.23205 0.333008 1.33936V12.7144C0.334382 12.8217 0.376751 12.9242 0.451087 13.0001C0.525423 13.0759 0.625849 13.1192 0.730967 13.1206H12.935C13.0402 13.1192 13.1406 13.0759 13.2149 13.0001C13.2893 12.9242 13.3316 12.8217 13.333 12.7144V1.33936C13.3316 1.23205 13.2893 1.12953 13.2149 1.05364C13.1406 0.97776 13.0402 0.934508 12.935 0.933105Z" fill="#666666"/>
<path d="M11.773 1.74561C11.7408 1.82159 11.6874 1.88623 11.6194 1.93149C11.5515 1.97675 11.4721 2.00064 11.3909 2.00019H10.6428C10.5611 2.00032 10.481 1.97636 10.4123 1.9312C10.3436 1.88604 10.2891 1.8216 10.2554 1.74561H3.60687C3.57027 1.82515 3.51262 1.89266 3.44042 1.94052C3.36823 1.98838 3.28436 2.01467 3.19829 2.01644H2.53503C2.45141 2.01579 2.36958 1.99171 2.29846 1.94681C2.22735 1.90192 2.16968 1.83793 2.13176 1.76186H1.12891V3.71186H12.5371V1.74561H11.773Z" fill="#666666"/>
<path d="M3.60645 1.74542H10.255C10.2321 1.69052 10.2195 1.63172 10.2179 1.57208V1.1875H3.66481V1.52875C3.66177 1.60457 3.64181 1.67867 3.60645 1.74542Z" fill="#666666"/>
<path d="M2.13226 1.74542C2.09448 1.67969 2.07435 1.60496 2.07389 1.52875V1.1875H0.731445V3.71167H1.1294V1.74542H2.13226Z" fill="#666666"/>
<path d="M11.7734 1.74542H12.5375V3.71167H12.9355V1.1875H11.8106V1.57208C11.8116 1.63203 11.7989 1.69138 11.7734 1.74542Z" fill="#666666"/>
</svg>
