<svg width="156" height="156" viewBox="0 0 156 156" fill="none" xmlns="http://www.w3.org/2000/svg">
<circle cx="78" cy="78" r="78" fill="#2AB0FC"/>
<circle cx="78" cy="78" r="64" stroke="white" stroke-width="2"/>
<g clip-path="url(#clip0_177_13408)">
<path d="M87.7681 84.433H91.6901V88.281C91.6901 96.199 88.4711 103.932 82.0331 106.855L79.2581 102.97C84.9931 100.417 87.7681 94.09 87.7681 88.281V84.433ZM88.8781 84.433H92.7631V88.281C92.7631 93.831 95.5011 99.751 101.236 102.119L98.5721 106.004C92.0601 103.192 88.8781 95.903 88.8781 88.281V84.433ZM80.6271 82.324H99.8301V86.357H80.6271V82.324ZM103.012 79.031H107.97V113.293H103.012V79.031Z" fill="white"/>
<path d="M67.532 79.031H72.453V98.123H67.532V79.031ZM71.084 86.468H77.004V90.501H71.084V86.468ZM57.69 80.992H62.944C62.944 90.094 57.246 96.273 47.034 98.937L45.11 95.052C53.509 92.943 57.69 88.577 57.69 83.434V80.992ZM46.738 80.992H60.65V84.877H46.738V80.992ZM50.216 99.492H72.453V112.923H50.216V99.492ZM67.606 103.377H55.063V109.038H67.606V103.377Z" fill="white"/>
<path d="M87.0282 43.881H91.0612V46.915C91.0612 53.723 88.1012 59.717 81.5892 61.974L78.9622 58.089C84.6972 56.165 87.0282 51.577 87.0282 46.915V43.881ZM88.0272 43.881H92.0232V47.396C92.0232 51.503 94.3172 55.499 99.6822 57.164L97.1292 60.975C90.9502 58.903 88.0272 53.575 88.0272 47.396V43.881ZM101.569 42.031H106.49V62.27H101.569V42.031ZM105.121 49.949H111.041V54.019H105.121V49.949ZM95.3162 63.047C102.42 63.047 106.897 65.526 106.897 69.67C106.897 73.851 102.42 76.293 95.3162 76.293C88.1752 76.293 83.6982 73.851 83.6982 69.67C83.6982 65.526 88.1752 63.047 95.3162 63.047ZM95.3162 66.858C90.9502 66.858 88.5822 67.783 88.5822 69.67C88.5822 71.594 90.9502 72.482 95.3162 72.482C99.6822 72.482 102.013 71.594 102.013 69.67C102.013 67.783 99.6822 66.858 95.3162 66.858Z" fill="white"/>
<path d="M67.532 42.031H72.453V61.789H67.532V42.031ZM71.084 49.949H77.004V54.019H71.084V49.949ZM49.809 63.306H72.453V76.293H67.532V67.228H49.809V63.306ZM46.849 43.955H51.77V58.052H46.849V43.955ZM46.849 56.017H49.735C54.397 56.017 59.466 55.721 64.868 54.685L65.423 58.644C59.836 59.754 54.582 60.05 49.735 60.05H46.849V56.017Z" fill="white"/>
</g>
<defs>
<clipPath id="clip0_177_13408">
<rect width="67" height="72" fill="white" transform="translate(45 42)"/>
</clipPath>
</defs>
</svg>
