<svg width="38" height="44" viewBox="0 0 38 44" fill="none" xmlns="http://www.w3.org/2000/svg">
<path d="M32.0804 31.7861C35.5759 28.2695 37.5 23.5934 37.5 18.6203C37.5 13.646 35.5759 8.97121 32.081 5.45455C28.5873 1.93659 23.9413 0 19 0C14.0584 0 9.41293 1.93659 5.91899 5.45331C2.42413 8.97121 0.5 13.646 0.5 18.6203C0.5 23.5947 2.42438 28.2695 5.91868 31.7861L17.3819 43.3258C17.8111 43.7562 18.3931 44 18.9997 44C19.6066 43.9988 20.1882 43.7562 20.6181 43.3245L32.0804 31.7861Z" fill="#FF3819"/>
<path d="M19 26.8885C23.7681 26.8885 27.6334 23.058 27.6334 18.3329C27.6334 13.6078 23.7681 9.77734 19 9.77734C14.232 9.77734 10.3667 13.6078 10.3667 18.3329C10.3667 23.058 14.232 26.8885 19 26.8885Z" fill="white"/>
</svg>
