<svg width="18" height="18" viewBox="0 0 18 18" fill="none" xmlns="http://www.w3.org/2000/svg">
<path d="M17.8232 11.7658L17.4054 12.0405C17.5107 12.2006 17.5295 12.404 17.4547 12.5817C16.23 15.4818 12.8587 17.5 8.99993 17.5C5.14122 17.5 1.76989 15.4817 0.545282 12.5815C0.47055 12.4041 0.489235 12.201 0.594579 12.0407C0.699768 11.8808 0.876825 11.7858 1.06517 11.7858H7.93481H8.43481V11.2858V10.1428V9.64285H7.93481H2.32476C2.15704 9.64285 1.9975 9.56766 1.88968 9.4364C1.78186 9.30507 1.73747 9.13154 1.76955 8.96342C1.79717 8.82015 2.5497 5.03896 5.47679 2.09512L5.4768 2.0951C5.69728 1.87334 6.05354 1.87334 6.27402 2.0951C6.49609 2.31847 6.49609 2.68181 6.27402 2.90518L6.27401 2.90518C4.6066 4.58232 3.70919 6.56632 3.26587 7.83505L3.03352 8.49998H3.73788H7.93481H8.43481V7.99999V1.07169C8.43481 0.898654 8.51244 0.735449 8.64501 0.627107C8.7781 0.518546 8.95078 0.477087 9.11455 0.512225L9.11626 0.512585C9.28337 0.547827 14.849 1.77941 17.2056 8.88993C17.2636 9.06494 17.2342 9.25744 17.1274 9.40638L17.1271 9.40676C17.0205 9.55575 16.8502 9.64285 16.6698 9.64285H10.0653H9.56528V10.1428V11.2858V11.7858H10.0653H16.9347C17.1231 11.7858 17.3001 11.8807 17.4057 12.0409L17.8232 11.7658ZM17.8232 11.7658C18.0203 12.0657 18.0548 12.4449 17.9154 12.776M17.8232 11.7658C17.6257 11.4661 17.2923 11.2858 16.9347 11.2858L17.9154 12.776M17.9154 12.776C16.5961 15.9005 13.0135 18 8.99993 18C4.98654 18 1.40401 15.9005 0.0846618 12.776C-0.0549869 12.4449 -0.0202652 12.0657 0.176914 11.7658C0.374119 11.4661 0.707747 11.2858 1.06517 11.2858L17.9154 12.776ZM10.2819 2.14893L9.56528 1.80445V2.59957V7.99999V8.49998H10.0653H15.11H15.8849L15.5656 7.79398C14.0494 4.44076 11.752 2.85559 10.2819 2.14893Z" fill="#2262C6" stroke="#2262C6"/>
</svg>
