<svg width="18" height="18" viewBox="0 0 18 18" fill="none" xmlns="http://www.w3.org/2000/svg">
<path d="M17.4344 17.5V8.51815C17.4344 7.92915 17.1298 7.38936 16.6421 7.09513C16.1554 6.80186 15.555 6.79338 15.061 7.0727L15.0609 7.07273C13.3533 8.03787 11.2012 8.55965 9.00006 8.55965C6.79894 8.55965 4.64681 8.03787 2.93922 7.07273L2.93916 7.0727C2.44502 6.79332 1.84474 6.8017 1.35826 7.09503L17.4344 17.5ZM17.4344 17.5H14.2299V11.7029V11.0371L13.5906 11.2227C12.1488 11.6411 10.6008 11.8582 9.00006 11.8582C7.39936 11.8582 5.85134 11.6411 4.40955 11.2227L3.7702 11.0371V11.7029V17.5M17.4344 17.5H3.7702M3.7702 17.5H0.565796V8.51815C0.565796 7.9291 0.870437 7.38926 1.35823 7.09505L3.7702 17.5Z" fill="#2262C6" stroke="#2262C6"/>
<path d="M4.75551 2.68664C4.75551 3.90451 3.79252 4.87301 2.62768 4.87301C1.463 4.87301 0.5 3.90453 0.5 2.68664C0.5 1.46845 1.46303 0.5 2.62768 0.5C3.79249 0.5 4.75551 1.46847 4.75551 2.68664Z" fill="#2262C6" stroke="#2262C6"/>
<path d="M17.5 2.68664C17.5 3.90453 16.537 4.87301 15.3723 4.87301C14.2075 4.87301 13.2445 3.90452 13.2445 2.68664C13.2445 1.46847 14.2075 0.5 15.3723 0.5C16.537 0.5 17.5 1.46845 17.5 2.68664Z" fill="#2262C6" stroke="#2262C6"/>
</svg>
