<svg width="18" height="18" viewBox="0 0 18 18" fill="none" xmlns="http://www.w3.org/2000/svg">
<path d="M16.2621 2.30154C15.1399 1.15872 13.6477 0.529411 12.0607 0.529411C10.9634 0.529411 9.91859 0.825197 9.00008 1.39059C8.08157 0.825197 7.03729 0.529411 5.93945 0.529411C4.35245 0.529411 2.86021 1.15872 1.73756 2.30167C-0.579186 4.66089 -0.579186 8.49963 1.73756 10.8589L7.68668 16.9169C8.03766 17.2739 8.50397 17.4706 9.00008 17.4706C9.49617 17.4706 9.96248 17.2739 10.314 16.9165L16.2626 10.8589C18.5793 8.49963 18.5791 4.66076 16.2621 2.30154ZM14.8423 9.41298L9.00008 15.3623L3.20054 9.4564H3.70803C4.0682 9.4564 4.40106 9.25991 4.57965 8.94126L5.3424 7.58214L6.57346 11.6561C6.68755 12.0334 7.00454 12.3103 7.38851 12.3672C7.4369 12.3745 7.48526 12.3779 7.53339 12.3779C7.86575 12.3779 8.18079 12.2096 8.3688 11.9226L9.98334 9.4564H11.7172C12.2718 9.4564 12.7213 8.99873 12.7213 8.43396C12.7213 7.86918 12.2718 7.41151 11.7172 7.41151H9.44582C9.11022 7.41151 8.79668 7.58237 8.6104 7.8668L7.87098 8.99633L6.58039 4.7248C6.46256 4.3353 6.12896 4.05406 5.7311 4.00936C5.33273 3.96363 4.94726 4.16432 4.74858 4.51832L3.12513 7.41151H2.09499C1.82984 6.12978 2.18254 4.74096 3.15761 3.74769C3.90102 2.99108 4.88871 2.57443 5.93945 2.57443C6.83663 2.57443 7.67924 2.87185 8.37624 3.4346L9.00008 3.93813L9.6239 3.4346C10.3209 2.87185 11.1638 2.57443 12.0607 2.57443C13.1114 2.57443 14.0992 2.99108 14.8423 3.74769C16.3762 5.30951 16.3762 7.851 14.8423 9.41298Z" fill="#2262C6"/>
</svg>
