<svg width="18" height="16" viewBox="0 0 18 16" fill="none" xmlns="http://www.w3.org/2000/svg">
<path d="M17.7286 12.75L10.5996 1.3719C10.2605 0.830747 9.65385 0.5 8.99998 0.5C8.34591 0.5 7.7393 0.830747 7.40034 1.3719L0.271366 12.75C-0.0791276 13.3094 -0.0909131 14.0078 0.240734 14.5777C0.572254 15.1473 1.19534 15.5 1.87078 15.5H16.1292C16.8046 15.5 17.4277 15.1473 17.7594 14.5777C18.0909 14.0078 18.0791 13.3094 17.7286 12.75ZM7.79473 4.70533C7.79473 4.06093 8.33425 3.53885 8.99998 3.53885C9.66564 3.53885 10.2051 4.06093 10.2051 4.70533V8.99195C10.2051 9.63623 9.66564 10.1584 8.99998 10.1584C8.33425 10.1584 7.79473 9.63623 7.79473 8.99195V4.70533ZM8.99998 13.8195C8.25101 13.8195 7.64405 13.232 7.64405 12.5071C7.64405 11.7823 8.25101 11.1946 8.99998 11.1946C9.74872 11.1946 10.3557 11.7823 10.3557 12.5071C10.3557 13.232 9.74872 13.8195 8.99998 13.8195Z" fill="#2262C6"/>
</svg>
