<svg width="18" height="18" viewBox="0 0 18 18" fill="none" xmlns="http://www.w3.org/2000/svg">
<path d="M0.7 3.72168C0.7 2.05628 2.05634 0.7 3.72214 0.7C5.38737 0.7 6.74378 2.05621 6.74378 3.72168C6.74378 5.38722 5.38731 6.74364 3.72214 6.74364C2.05641 6.74364 0.7 5.38716 0.7 3.72168ZM1.33047 3.72168C1.33047 5.04098 2.40217 6.11362 3.72214 6.11362C5.04145 6.11362 6.11378 5.04111 6.11378 3.72168C6.11378 2.40213 5.04131 1.33002 3.72214 1.33002C2.40231 1.33002 1.33047 2.40226 1.33047 3.72168Z" fill="#2262C6" stroke="#2262C6" stroke-width="1.4"/>
<path d="M14.2788 10.5564C12.2265 10.5564 10.5566 12.226 10.5566 14.2784C10.5566 16.3302 12.2265 18 14.2788 18C16.3306 18 18.0004 16.3302 18.0004 14.2784C18.0004 12.226 16.3306 10.5564 14.2788 10.5564ZM14.2788 15.97C13.3456 15.97 12.5866 15.211 12.5866 14.2784C12.5866 13.3452 13.3456 12.5864 14.2788 12.5864C15.2114 12.5864 15.9704 13.3452 15.9704 14.2784C15.9704 15.211 15.2114 15.97 14.2788 15.97Z" fill="#2262C6"/>
<path d="M3.72214 10.5564C1.66982 10.5564 0 12.226 0 14.2781C0 16.3302 1.66982 18 3.72214 18C5.77395 18 7.44378 16.3302 7.44378 14.2781C7.44378 12.226 5.77395 10.5564 3.72214 10.5564Z" fill="#2262C6"/>
<path d="M14.2783 7.44364C16.3301 7.44364 17.9999 5.77402 17.9999 3.72168C17.9999 1.66959 16.3301 0 14.2783 0C12.226 0 10.5566 1.66959 10.5566 3.72168C10.5566 5.77402 12.226 7.44364 14.2783 7.44364Z" fill="#2262C6"/>
</svg>
