<svg width="18" height="18" viewBox="0 0 18 18" fill="none" xmlns="http://www.w3.org/2000/svg">
<path d="M17.0257 0H8.99597C8.73776 0 8.48999 0.102692 8.30741 0.285242L0.285175 8.30732C-0.0950583 8.68783 -0.0950583 9.30447 0.285175 9.68499L8.31486 17.7148C8.50535 17.9049 8.7544 18 9.00392 18C9.25297 18 9.5025 17.9049 9.69249 17.7148L17.7147 9.69268C17.8973 9.50985 18 9.26218 18 9.00383V0.974089C18 0.436067 17.5639 0 17.0257 0ZM16.0518 8.60041L9.00392 15.6484L2.35164 8.99616L9.39955 1.94815H16.0518V8.60041Z" fill="#2262C6"/>
<path d="M12.909 6.30909C13.5812 6.30909 14.1264 5.76414 14.1264 5.09155C14.1264 4.41911 13.5812 3.87402 12.909 3.87402C12.2364 3.87402 11.6914 4.41911 11.6914 5.09155C11.6914 5.76414 12.2364 6.30909 12.909 6.30909Z" fill="#2262C6"/>
</svg>
