<svg width="18" height="18" viewBox="0 0 18 18" fill="none" xmlns="http://www.w3.org/2000/svg">
<g clip-path="url(#clip0_5_8726)">
<path d="M15.0134 2.98677L15.0134 2.98677C18.3289 6.30221 18.3289 11.6978 15.0134 15.0132L15.0134 15.0132C11.6978 18.3289 6.30222 18.3289 2.98662 15.0132L2.98662 15.0132C-0.328872 11.6978 -0.328872 6.30222 2.98662 2.98677L2.98663 2.98676C6.30209 -0.328916 11.6978 -0.328926 15.0134 2.98677ZM14.1549 13.2782L14.5725 13.6958L14.9155 13.215C16.7082 10.7019 16.7082 7.29813 14.9155 4.78477L14.5725 4.3039L14.1549 4.72157L12.3171 6.55943L12.0478 6.82877L12.2359 7.15995C12.8819 8.29697 12.8819 9.70279 12.2359 10.8401L12.0478 11.1713L12.3171 11.4406L14.1549 13.2782ZM7.24136 7.24136L7.24132 7.24139C6.27147 8.2114 6.27147 9.78863 7.24148 10.7586C8.21149 11.7286 9.78862 11.7286 10.7586 10.7586L10.7587 10.7586C11.7285 9.78866 11.7287 8.21145 10.7587 7.24139C9.78875 6.27133 8.21138 6.27138 7.24136 7.24136ZM13.2785 3.84513L13.6961 3.4275L13.2153 3.08454C10.7019 1.29177 7.29824 1.29176 4.78497 3.08454L4.30417 3.42751L4.72177 3.84513L6.55952 5.68302L6.82885 5.95238L7.16005 5.76423C8.29737 5.11816 9.70304 5.11817 10.8402 5.76422L11.1714 5.95239L11.4407 5.68302L13.2785 3.84513ZM3.84513 4.72156L3.42748 4.30392L3.08451 4.78477C1.29183 7.29814 1.29183 10.7019 3.08451 13.2152L3.42747 13.6961L3.84511 13.2785L5.68312 11.4406L5.95248 11.1713L5.76432 10.84C5.11825 9.70278 5.11825 8.2972 5.76421 7.15992L5.95232 6.82874L5.683 6.55942L3.84513 4.72156ZM4.72152 14.1549L4.30391 14.5725L4.78473 14.9155C7.29812 16.7082 10.7019 16.7082 13.2153 14.9155L13.6961 14.5725L13.2785 14.1549L11.4406 12.317L11.1713 12.0477L10.8401 12.2357C9.70294 12.8816 8.29724 12.8816 7.16006 12.2355L6.82886 12.0474L6.55952 12.3167L4.72152 14.1549Z" fill="#2262C6" stroke="#2262C6"/>
</g>
<defs>
<clipPath id="clip0_5_8726">
<rect width="18" height="18" fill="white"/>
</clipPath>
</defs>
</svg>
