<svg width="17" height="18" viewBox="0 0 17 18" fill="none" xmlns="http://www.w3.org/2000/svg">
<path d="M16.0334 0H14.1618V0.592454C14.1618 1.18046 13.6877 1.6572 13.103 1.6572C12.5182 1.6572 12.0443 1.18046 12.0443 0.592454V0H9.5587V0.592454C9.5587 1.18046 9.08485 1.6572 8.50011 1.6572C7.9154 1.6572 7.4413 1.18046 7.4413 0.592454V0H4.95568V0.592454C4.95568 1.18046 4.48181 1.6572 3.89697 1.6572C3.31226 1.6572 2.83838 1.18046 2.83838 0.592454V0H0.96659C0.432915 0 0 0.435203 0 0.97221V17.0278C0 17.5647 0.432915 18 0.96659 18H16.0334C16.5671 18 17 17.5647 17 17.0278V0.97221C17 0.435203 16.5671 0 16.0334 0ZM15.0667 16.0554H1.93331V4.06425H15.0667V16.0554Z" fill="#2262C6"/>
<path d="M5.04788 7.58352H11.9524C12.3845 7.58352 12.7348 7.23117 12.7348 6.79635C12.7348 6.36178 12.3845 6.00943 11.9524 6.00943H5.04788C4.61583 6.00943 4.26514 6.36178 4.26514 6.79635C4.26514 7.23117 4.61583 7.58352 5.04788 7.58352Z" fill="#2262C6"/>
<path d="M5.04788 10.6855H11.9524C12.3845 10.6855 12.7348 10.333 12.7348 9.89829C12.7348 9.46372 12.3845 9.11137 11.9524 9.11137H5.04788C4.61583 9.11137 4.26514 9.46372 4.26514 9.89829C4.26514 10.333 4.61583 10.6855 5.04788 10.6855Z" fill="#2262C6"/>
<path d="M5.04788 13.7873H11.9524C12.3845 13.7873 12.7348 13.4349 12.7348 13.0002C12.7348 12.5657 12.3845 12.2132 11.9524 12.2132H5.04788C4.61583 12.2132 4.26514 12.5657 4.26514 13.0002C4.26514 13.4349 4.61583 13.7873 5.04788 13.7873Z" fill="#2262C6"/>
</svg>
