<svg width="22" height="22" viewBox="0 0 22 22" fill="none" xmlns="http://www.w3.org/2000/svg">
<path d="M10.2275 7.43359H7.48877V10.2203H10.2275V7.43359Z" fill="#666666"/>
<path d="M14.7979 7.43359H12.0591V10.2203H14.7979V7.43359Z" fill="#666666"/>
<path d="M19.3687 7.43359H16.6299V10.2203H19.3687V7.43359Z" fill="#666666"/>
<path d="M5.65674 15.6562H2.91797V18.4429H5.65674V15.6562Z" fill="#666666"/>
<path d="M10.2275 15.6562H7.48877V18.4429H10.2275V15.6562Z" fill="#666666"/>
<path d="M14.7979 15.6562H12.0591V18.4429H14.7979V15.6562Z" fill="#666666"/>
<path d="M10.2275 11.5488H7.48877V14.3355H10.2275V11.5488Z" fill="#666666"/>
<path d="M5.65674 11.5488H2.91797V14.3355H5.65674V11.5488Z" fill="#666666"/>
<path d="M14.7979 11.5488H12.0591V14.3355H14.7979V11.5488Z" fill="#666666"/>
<path d="M19.3687 11.5488H16.6299V14.3355H19.3687V11.5488Z" fill="#666666"/>
<path d="M16.7379 0.732422H5.63916V1.16278H16.7379V0.732422Z" fill="#666666"/>
<path d="M21.3265 0.732422H19.4229V1.16326H21.3265V5.43492H20.6531V19.9824H1.34694V5.43492H0.673469V1.16326H2.94531V0.732422H0.673469C0.495577 0.734796 0.325626 0.807991 0.199826 0.936411C0.074027 1.06483 0.00232568 1.23832 0 1.41992L0 20.6699C0.00232568 20.8515 0.074027 21.025 0.199826 21.1534C0.325626 21.2819 0.495577 21.355 0.673469 21.3574H21.3265C21.5044 21.355 21.6744 21.2819 21.8002 21.1534C21.926 21.025 21.9977 20.8515 22 20.6699V1.41992C21.9977 1.23832 21.926 1.06483 21.8002 0.936411C21.6744 0.807991 21.5044 0.734796 21.3265 0.732422Z" fill="#666666"/>
<path d="M19.3597 2.10742C19.3052 2.23601 19.2148 2.3454 19.0999 2.42199C18.9849 2.49859 18.8505 2.53902 18.7132 2.53826H17.4471C17.3088 2.53847 17.1734 2.49794 17.0571 2.42151C16.9408 2.34509 16.8486 2.23603 16.7916 2.10742H5.54015C5.47822 2.24203 5.38066 2.35628 5.25848 2.43727C5.1363 2.51826 4.99437 2.56277 4.84872 2.56576H3.72627C3.58477 2.56466 3.44628 2.5239 3.32593 2.44792C3.20558 2.37195 3.10799 2.26367 3.04382 2.13492H1.34668V5.43492H20.6528V2.10742H19.3597Z" fill="#666666"/>
<path d="M5.54004 2.10823H16.7915C16.7527 2.01533 16.7314 1.91583 16.7286 1.8149V1.16406H5.63881V1.74156C5.63367 1.86987 5.59988 1.99528 5.54004 2.10823Z" fill="#666666"/>
<path d="M3.04444 2.10823C2.9805 1.997 2.94643 1.87052 2.94566 1.74156V1.16406H0.673828V5.43573H1.3473V2.10823H3.04444Z" fill="#666666"/>
<path d="M19.3604 2.10823H20.6534V5.43573H21.3269V1.16406H19.4232V1.8149C19.4249 1.91634 19.4034 2.01679 19.3604 2.10823Z" fill="#666666"/>
</svg>
