<svg width="156" height="156" viewBox="0 0 156 156" fill="none" xmlns="http://www.w3.org/2000/svg">
<circle cx="78" cy="78" r="78" fill="#FF3819"/>
<circle cx="78" cy="78" r="64" stroke="white" stroke-width="2"/>
<g clip-path="url(#clip0_177_13598)">
<path d="M111.032 69.6666C110.8 66.5752 109.036 64.7742 106.188 64.7742C103.243 64.7742 101.596 66.6559 101.577 69.2365C101.557 72.0591 103.65 73.3225 106.072 74.0752L108.591 74.9354C113.396 76.4677 116.981 79.8548 117 86.3332C116.981 93.4569 112.989 98.0268 106.149 97.9999C99.3678 98.0268 95.0469 93.6719 94.8726 85.3117H100.53C100.724 89.2365 102.972 91.2257 106.072 91.2257C109.133 91.2257 111.11 89.2365 111.11 86.3332C111.11 83.672 109.366 82.4354 106.304 81.387L103.243 80.3655C98.5152 78.7526 95.6088 75.4731 95.6088 69.7742C95.5895 62.7043 100.085 58 106.227 58C112.447 58 116.535 62.7849 116.612 69.6666H111.032Z" fill="white"/>
<path d="M91.6176 77.9999C91.6176 90.715 85.9404 97.9999 78.5195 97.9999C71.0403 97.9999 65.3826 90.6612 65.3826 77.9999C65.3826 65.2849 71.0403 58 78.5195 58C85.9404 58 91.6176 65.2849 91.6176 77.9999ZM71.3116 77.9999C71.3116 86.3064 74.1599 90.8225 78.5195 90.8494C82.8403 90.8225 85.7079 86.3064 85.6886 77.9999C85.7079 69.6666 82.8403 65.1774 78.5195 65.1505C74.1599 65.1774 71.3116 69.6666 71.3116 77.9999Z" fill="white"/>
<path d="M56.1595 69.6666C55.927 66.5752 54.1638 64.7742 51.3156 64.7742C48.3704 64.7742 46.7235 66.6559 46.7041 69.2365C46.6847 72.0591 48.7773 73.3225 51.1993 74.0752L53.7182 74.9354C58.5234 76.4677 62.108 79.8548 62.1273 86.3332C62.108 93.4569 58.1165 98.0268 51.2768 97.9999C44.4952 98.0268 40.1744 93.6719 40 85.3117H45.6578C45.8515 89.2365 48.0991 91.2257 51.1993 91.2257C54.2607 91.2257 56.237 89.2365 56.237 86.3332C56.237 83.672 54.4932 82.4354 51.4318 81.387L48.3704 80.3655C43.6427 78.7526 40.7363 75.4731 40.7363 69.7742C40.7169 62.7043 45.2121 58 51.3543 58C57.574 58 61.6623 62.7849 61.7398 69.6666H56.1595Z" fill="white"/>
</g>
<defs>
<clipPath id="clip0_177_13598">
<rect width="77" height="40" fill="white" transform="translate(40 58)"/>
</clipPath>
</defs>
</svg>
