<?xml version="1.0" standalone="no"?>
<!DOCTYPE svg PUBLIC "-//W3C//DTD SVG 20010904//EN"
 "http://www.w3.org/TR/2001/REC-SVG-20010904/DTD/svg10.dtd">
<svg version="1.0" xmlns="http://www.w3.org/2000/svg"
 width="91.000000pt" height="85.000000pt" viewBox="0 0 91.000000 85.000000"
 preserveAspectRatio="xMidYMid meet">

<g transform="translate(0.000000,85.000000) scale(0.100000,-0.100000)"
fill="#000000" stroke="none">
<path d="M320 769 c-38 -73 -36 -156 7 -257 2 -7 -1 -11 -7 -10 -7 2 -21 -14
-32 -35 -25 -47 -18 -95 20 -138 35 -39 102 -50 150 -25 40 21 40 27 1 50 -35
21 -105 89 -120 119 -6 10 20 -13 58 -51 52 -53 82 -74 126 -91 96 -35 217
-25 256 23 13 15 7 25 -63 95 l-77 77 31 69 c17 37 29 70 27 72 -3 2 -17 -26
-32 -62 -15 -36 -31 -65 -35 -65 -3 0 -16 10 -28 23 l-22 23 66 64 c38 38 63
57 59 45 -5 -17 -4 -17 6 2 6 12 20 23 30 26 24 6 25 45 2 54 -10 4 -23 -2
-37 -19 -12 -14 -61 -43 -109 -64 l-88 -38 -77 77 c-43 42 -81 77 -85 77 -3 0
-16 -18 -27 -41z m317 -106 l-67 -68 -27 27 -27 27 50 22 c27 12 67 29 89 39
22 10 42 19 45 19 3 1 -25 -29 -63 -66z"/>
<path d="M296 268 c-7 -18 -30 -68 -50 -112 -20 -43 -35 -80 -33 -83 2 -2 88
-2 190 -1 l186 3 -51 113 c-46 102 -54 113 -72 106 -29 -10 -106 -11 -133 -1
-19 7 -24 3 -37 -25z"/>
<path d="M160 45 c0 -13 33 -15 235 -15 202 0 235 2 235 15 0 13 -33 15 -235
15 -202 0 -235 -2 -235 -15z"/>
</g>
</svg>
